<?xml version="1.0" encoding="UTF-8"?>
<svg width="42px" height="42px" viewBox="0 0 42 42" version="1.1" xmlns="http://www.w3.org/2000/svg" xmlns:xlink="http://www.w3.org/1999/xlink">
    <!-- Generator: Sketch 49 (51002) - http://www.bohemiancoding.com/sketch -->
    <title>google-plus-social-logotype</title>
    <desc>Created with Sketch.</desc>
    <defs></defs>
    <g id="Symbols" stroke="none" stroke-width="1" fill="none" fill-rule="evenodd">
        <g id="layout/desktop/elements/footer/home" transform="translate(-954.000000, -114.000000)" fill="#FFFFFF" fill-rule="nonzero">
            <g id="footer">
                <g id="footer-content" transform="translate(445.000000, 53.000000)">
                    <g id="google-plus-social-logotype" transform="translate(509.000000, 61.000000)">
                        <path d="M21.7707143,14.419 C21.7707143,11.5154286 20.0397143,7 16.7024286,7 C15.6532857,7 14.5291429,7.52371429 13.8837143,8.33071429 C13.1988571,9.17885714 13,10.264 13,11.3157143 C13,14.0157143 14.5677143,18.4904286 18.0297143,18.4904286 C19.0347143,18.4904286 20.1177143,18.0091429 20.7648571,17.3632857 C21.6901429,16.4328571 21.7707143,15.1454286 21.7707143,14.419 Z" id="Shape"></path>
                        <path d="M19.6082857,25.0402857 C19.2877143,25 19.0862857,25 18.6842857,25 C18.3212857,25 16.148,25.0792857 14.459,25.6475714 C13.5744286,25.9681429 11,26.9367143 11,29.7991429 C11,32.6628571 13.7762857,34.7212857 18.0808571,34.7212857 C21.9444286,34.7212857 23.9968571,32.8621429 23.9968571,30.3657143 C23.9964286,28.303 22.6687143,27.2182857 19.6082857,25.0402857 Z" id="Shape"></path>
                        <path d="M20.9464286,0 C9.378,0 0,9.378 0,20.9464286 C0,32.5148571 9.378,41.8928571 20.9464286,41.8928571 C32.5148571,41.8928571 41.8928571,32.5148571 41.8928571,20.9464286 C41.8928571,9.378 32.5148571,0 20.9464286,0 Z M16.0667143,36.405 C10.2312857,36.405 7.41642857,33.6244286 7.41642857,30.6385714 C7.41642857,29.1878571 8.13942857,27.1328571 10.5137143,25.7207143 C13.0071429,24.1881429 16.389,23.988 18.2005714,23.8632857 C17.6352857,23.1381429 16.9937143,22.3722857 16.9937143,21.1225714 C16.9937143,20.4381429 17.1951429,20.0344286 17.394,19.5501429 C16.9508571,19.5912857 16.5102857,19.6307143 16.1074286,19.6307143 C11.844,19.6307143 9.42985714,16.443 9.42985714,13.2985714 C9.42985714,11.4462857 10.2737143,9.38828571 12.0034286,7.89642857 C14.298,6.00128571 17.4334286,5.487 19.608,5.487 L27.5357143,5.487 L24.9192857,7.131 L22.4267143,7.131 C23.3515714,7.89642857 25.2801429,9.50914286 25.2801429,12.5751429 C25.2801429,15.5567143 23.5924286,16.9718571 21.9034286,18.3008571 C21.3792857,18.8241429 20.7754286,19.3885714 20.7754286,20.277 C20.7754286,21.162 21.3797143,21.6454286 21.8211429,22.0114286 L23.271,23.1377143 C25.0418571,24.6287143 26.6515714,26.0001429 26.6507143,28.785 C26.6502857,32.5765714 22.9864286,36.405 16.0667143,36.405 Z M33.4307143,20.4535714 L33.4307143,24.5095714 L31.4395714,24.5095714 L31.4395714,20.4535714 L27.414,20.4535714 L27.414,18.4405714 L31.4395714,18.4405714 L31.4395714,14.4094286 L33.4307143,14.4094286 L33.4307143,18.4405714 L37.4755714,18.4405714 L37.4755714,20.4535714 L33.4307143,20.4535714 Z" id="Shape"></path>
                    </g>
                </g>
            </g>
        </g>
    </g>
</svg>