<?xml version="1.0" encoding="UTF-8"?>
<svg width="34px" height="34px" viewBox="0 0 34 34" version="1.1" xmlns="http://www.w3.org/2000/svg" xmlns:xlink="http://www.w3.org/1999/xlink">
    <!-- Generator: sketchtool 48.2 (47327) - http://www.bohemiancoding.com/sketch -->
    <title>E4D6DEB6-07DE-4D02-B918-6AC99E154298</title>
    <desc>Created with sketchtool.</desc>
    <defs></defs>
    <g id="layout/desktop/steps/home-step1" stroke="none" stroke-width="1" fill="none" fill-rule="evenodd" transform="translate(-703.000000, -535.000000)">
        <g id="card" transform="translate(140.000000, 342.000000)">
            <g id="process-section" transform="translate(364.000000, 47.000000)">
                <g id="transaction-info" transform="translate(91.000000, 100.000000)">
                    <g id="switch-btn" transform="translate(109.000000, 47.000000)">
                        <g id="arrow" transform="translate(11.000000, 10.000000)" stroke="#878EA0" stroke-linecap="round" stroke-linejoin="round" stroke-width="2">
                            <path d="M1,0 L1,12" id="Path-3"></path>
                        </g>
                        <g id="arrow" transform="translate(16.000000, 16.000000) scale(1, -1) translate(-16.000000, -16.000000) translate(8.000000, 8.000000)">
                            <path d="M13,3 L13,15" id="Path-3" stroke="#878EA0" stroke-width="2" stroke-linecap="round" stroke-linejoin="round"></path>
                            <path d="M12.9975953,1.37512523 L15.5956715,5.87512523 C15.8027783,6.2338447 15.6798719,6.6925375 15.3211524,6.89964428 C15.207138,6.96547053 15.0778049,7.00012523 14.9461524,7.00012523 L9.75,7.00012523 C9.33578644,7.00012523 9,6.66433879 9,6.25012523 C9,6.11847273 9.0346547,5.98913964 9.10048095,5.87512523 L11.6985572,1.37512523 C11.9056639,1.01640576 12.3643567,0.893499397 12.7230762,1.10060618 C12.8370906,1.16643243 12.931769,1.26111082 12.9975953,1.37512523 Z" id="Polygon" fill="#878EA0"></path>
                            <path d="M3.99759526,9.37512523 L6.59567148,13.8751252 C6.80277826,14.2338447 6.67987189,14.6925375 6.32115242,14.8996443 C6.20713802,14.9654705 6.07780492,15.0001252 5.94615242,15.0001252 L0.75,15.0001252 C0.335786438,15.0001252 4.4408921e-16,14.6643388 0,14.2501252 C-2.22044605e-16,14.1184727 0.0346546984,13.9891396 0.100480947,13.8751252 L2.69855716,9.37512523 C2.90566394,9.01640576 3.36435674,8.8934994 3.72307621,9.10060618 C3.83709062,9.16643243 3.93176902,9.26111082 3.99759526,9.37512523 Z" id="Polygon-Copy" fill="#878EA0" transform="translate(3.500000, 12.500000) scale(1, -1) translate(-3.500000, -12.500000) "></path>
                        </g>
                        <circle id="switch-bg" stroke="#B7BECE" cx="16" cy="16" r="16"></circle>
                    </g>
                </g>
            </g>
        </g>
    </g>
</svg>