<?xml version="1.0" encoding="UTF-8"?>
<svg width="125px" height="54px" viewBox="0 0 125 54" version="1.1" xmlns="http://www.w3.org/2000/svg" xmlns:xlink="http://www.w3.org/1999/xlink">
    <!-- Generator: Sketch 49 (51002) - http://www.bohemiancoding.com/sketch -->
    <title>unicash-logotype</title>
    <desc>Created with Sketch.</desc>
    <defs>
        <path d="M2.87405421,14.1428572 C5.36487492,8.464005 9.34759398,3.60783205 14.3170767,0.0872906711 C14.9645502,0.196910439 15.5969886,0.419893861 16.1832947,0.756240937 L34.4782655,11.2515437 C36.2105508,12.2453065 37.2770783,14.0778635 37.2770783,16.0605938 L37.2770783,37.0822633 C37.2770783,39.0649937 36.2105508,40.8975507 34.4782655,41.8913134 L31.6413298,43.5187825 C26.9288047,44.2291534 22.1947754,43.3939777 17.4392422,41.0132554 C19.0620727,40.5103989 20.4252767,39.7243153 21.5288676,38.655 C23.6121524,36.6364185 24.6537791,33.7114478 24.6537791,29.88 L24.6537791,14.1428572 L17.6275805,14.1428572 L17.6275805,29.2928572 C17.6275805,31.2471526 17.1876388,32.7514233 16.3077421,33.8057143 C15.4278454,34.8600053 14.1597782,35.3871429 12.5035021,35.3871429 C10.847226,35.3871429 9.57915863,34.8600053 8.69926193,33.8057143 C7.81936529,32.7514233 7.37942356,31.2471526 7.37942356,29.2928572 L7.37942356,14.1428572 L2.87405421,14.1428572 Z M26.2808971,46.5939097 L13.6605186,53.8338609 C5.44289554,47.7152048 -7.10542736e-15,38.3429006 -7.10542736e-15,27.926516 C-7.10542736e-15,27.6922019 0.00234051489,27.4584425 0.00699911519,27.2252603 C1.94000699,31.9883984 5.04670019,36.074026 9.32707877,39.4821429 C14.5320762,43.6264585 20.1833491,45.9970475 26.2808971,46.5939097 Z" id="path-1"></path>
    </defs>
    <g id="Symbols" stroke="none" stroke-width="1" fill="none" fill-rule="evenodd">
        <g id="layout/desktop/elements/footer/home" transform="translate(-886.000000, -169.000000)">
            <g id="footer">
                <g id="footer-content" transform="translate(445.000000, 53.000000)">
                    <g id="unicash-logotype" transform="translate(441.000000, 116.000000)">
                        <g id="Group" transform="translate(11.000000, 0.000000)">
                            <g id="Combined-Shape" fill="#FFFFFF" fill-rule="nonzero">
                                <path d="M2.87405421,14.1428572 C5.36487492,8.464005 9.34759398,3.60783205 14.3170767,0.0872906711 C14.9645502,0.196910439 15.5969886,0.419893861 16.1832947,0.756240937 L34.4782655,11.2515437 C36.2105508,12.2453065 37.2770783,14.0778635 37.2770783,16.0605938 L37.2770783,37.0822633 C37.2770783,39.0649937 36.2105508,40.8975507 34.4782655,41.8913134 L31.6413298,43.5187825 C26.9288047,44.2291534 22.1947754,43.3939777 17.4392422,41.0132554 C19.0620727,40.5103989 20.4252767,39.7243153 21.5288676,38.655 C23.6121524,36.6364185 24.6537791,33.7114478 24.6537791,29.88 L24.6537791,14.1428572 L17.6275805,14.1428572 L17.6275805,29.2928572 C17.6275805,31.2471526 17.1876388,32.7514233 16.3077421,33.8057143 C15.4278454,34.8600053 14.1597782,35.3871429 12.5035021,35.3871429 C10.847226,35.3871429 9.57915863,34.8600053 8.69926193,33.8057143 C7.81936529,32.7514233 7.37942356,31.2471526 7.37942356,29.2928572 L7.37942356,14.1428572 L2.87405421,14.1428572 Z M26.2808971,46.5939097 L13.6605186,53.8338609 C5.44289554,47.7152048 -7.10542736e-15,38.3429006 -7.10542736e-15,27.926516 C-7.10542736e-15,27.6922019 0.00234051489,27.4584425 0.00699911519,27.2252603 C1.94000699,31.9883984 5.04670019,36.074026 9.32707877,39.4821429 C14.5320762,43.6264585 20.1833491,45.9970475 26.2808971,46.5939097 Z" id="path-1"></path>
                            </g>
                            <g id="Oval-Clipped">
                                <mask id="mask-2" fill="white">
                                    <use xlink:href="#path-1"></use>
                                </mask>
                                <g id="path-1"></g>
                                <path d="M23.1229989,67.7142857 C42.010472,67.7142857 57.3217942,52.1721706 57.3217942,33 C57.3217942,13.8278294 42.010472,-1.71428572 23.1229989,-1.71428572 C10.1562233,-1.71428572 -7.64992982,3.88195981 -13.4484762,14.6781529 C-19.2470226,25.474346 -11.0757964,26.9900577 -11.0757964,33 C-11.0757964,52.1721706 4.23552577,67.7142857 23.1229989,67.7142857 Z" id="Oval" mask="url(#mask-2)"></path>
                            </g>
                        </g>
                        <g id="Combined-Shape-Copy" transform="translate(0.000000, 1.000000)" fill="#FFFFFF" fill-rule="nonzero">
                            <path d="M15.3977461,49.2511956 L2.73649109,41.684805 C1.04277889,40.6726393 1.74902827e-14,38.8061461 1.31860335e-14,36.7866984 L8.8817842e-15,15.3757388 C8.8817842e-15,13.3562912 1.04277889,11.489798 2.73649109,10.4776323 L20.202883,0.0396825417 C12.2689783,6.34446697 7.13779796,16.378833 7.13779796,27.6796542 C7.13779796,35.8409401 10.2869635,43.3729397 15.3977461,49.2511956 Z" id="path-3"></path>
                        </g>
                        <path d="M68.7647758,32 C67.9434669,32 67.2308713,31.8761074 66.6269676,31.6283186 C66.023064,31.3805298 65.5278705,31.0413001 65.1413721,30.6106195 C64.7548738,30.1799389 64.4680239,29.6696195 64.2808138,29.079646 C64.0936036,28.4896726 64,27.8525108 64,27.1681416 L64,19.4690265 L65.7573508,19.4690265 L65.7573508,26.9734513 C65.7573508,28.2005961 66.0351423,29.0914426 66.5907336,29.6460177 C67.1463249,30.2005928 67.8709984,30.4778761 68.7647758,30.4778761 C69.2116645,30.4778761 69.6192933,30.4100302 69.9876745,30.2743363 C70.3560557,30.1386424 70.6731003,29.929205 70.9388179,29.6460177 C71.2045355,29.3628304 71.4098597,29.0000022 71.5547966,28.5575221 C71.6997334,28.115042 71.7722008,27.5870237 71.7722008,26.9734513 L71.7722008,19.4690265 L73.5295515,19.4690265 L73.5295515,27.1681416 C73.5295515,27.8525108 73.4359479,28.4896726 73.2487377,29.079646 C73.0615276,29.6696195 72.7716582,30.1799389 72.3791209,30.6106195 C71.9865835,31.0413001 71.49139,31.3805298 70.8935254,31.6283186 C70.2956608,31.8761074 69.5860847,32 68.7647758,32 Z M76.4463914,22.7964602 C76.8328898,22.7020644 77.3462002,22.6017705 77.986338,22.4955752 C78.6264758,22.38938 79.3632272,22.3362832 80.1966142,22.3362832 C80.9454547,22.3362832 81.5674661,22.439527 82.0626671,22.6460177 C82.557868,22.8525084 82.953419,23.1415911 83.2493317,23.5132743 C83.5452444,23.8849576 83.7535885,24.3303809 83.8743689,24.8495575 C83.9951493,25.3687342 84.0555391,25.9409998 84.0555391,26.5663717 L84.0555391,31.7345133 L82.3706564,31.7345133 L82.3706564,26.920354 C82.3706564,26.3539795 82.3314032,25.8702085 82.2528958,25.4690265 C82.1743883,25.0678446 82.044551,24.743364 81.8633799,24.4955752 C81.6822088,24.2477864 81.440651,24.0678471 81.1386991,23.9557522 C80.8367473,23.8436573 80.4623327,23.7876106 80.015444,23.7876106 C79.8342729,23.7876106 79.6470656,23.7935103 79.4538165,23.8053097 C79.2605673,23.8171092 79.0763794,23.8318583 78.9012474,23.8495575 C78.7261154,23.8672567 78.5691028,23.8879055 78.4302049,23.9115044 C78.2913071,23.9351034 78.1916645,23.9528023 78.1312741,23.9646018 L78.1312741,31.7345133 L76.4463914,31.7345133 L76.4463914,22.7964602 Z M88.5304425,31.7345133 L86.8455598,31.7345133 L86.8455598,22.5309735 L88.5304425,22.5309735 L88.5304425,31.7345133 Z M87.6789427,20.8672566 C87.3769905,20.8672566 87.1203357,20.7699125 86.9089694,20.5752212 C86.6976031,20.38053 86.5919216,20.1179957 86.5919216,19.7876106 C86.5919216,19.4572255 86.6976031,19.1946912 86.9089694,19 C87.1203357,18.8053088 87.3769905,18.7079646 87.6789427,18.7079646 C87.9808949,18.7079646 88.2375496,18.8053088 88.4489159,19 C88.6602823,19.1946912 88.7659638,19.4572255 88.7659638,19.7876106 C88.7659638,20.1179957 88.6602823,20.38053 88.4489159,20.5752212 C88.2375496,20.7699125 87.9808949,20.8672566 87.6789427,20.8672566 Z M95.5236115,31.9469027 C94.7626926,31.9469027 94.0953893,31.8289097 93.521681,31.5929204 C92.9479727,31.356931 92.4648569,31.0265508 92.0723196,30.6017699 C91.6797823,30.1769891 91.3868935,29.6725693 91.1936442,29.0884956 C91.0003949,28.5044219 90.9037719,27.8584106 90.9037719,27.1504425 C90.9037719,26.4424743 91.0094534,25.7935133 91.2208197,25.2035398 C91.432186,24.6135664 91.7311135,24.103247 92.1176121,23.6725664 C92.5041107,23.2418858 92.978168,22.905606 93.539798,22.6637168 C94.1014281,22.4218277 94.7264594,22.300885 95.4149094,22.300885 C95.837642,22.300885 96.2603681,22.3362829 96.6831007,22.4070796 C97.1058333,22.4778764 97.5104423,22.5899698 97.8969409,22.7433628 L97.5164835,24.1415929 C97.2628436,24.0235982 96.9699548,23.9292039 96.6378081,23.8584071 C96.3056614,23.7876103 95.9523829,23.7522124 95.5779626,23.7522124 C94.6358727,23.7522124 93.9142192,24.041295 93.4129789,24.619469 C92.9117387,25.197643 92.6611227,26.0412924 92.6611227,27.1504425 C92.6611227,27.6460202 92.7184927,28.1002929 92.8332343,28.5132743 C92.947976,28.9262558 93.1291445,29.2802345 93.3767449,29.5752212 C93.6243452,29.870208 93.9413897,30.0973443 94.3278883,30.2566372 C94.7143869,30.41593 95.1854244,30.4955752 95.7410157,30.4955752 C96.1879041,30.4955752 96.5925139,30.4542777 96.954856,30.3716814 C97.317198,30.2890851 97.6010282,30.2005904 97.8063558,30.1061947 L98.041877,31.4867257 C97.9452524,31.545723 97.8063566,31.6017697 97.6251856,31.6548673 C97.4440146,31.7079648 97.2386903,31.755162 97.009207,31.7964602 C96.7797237,31.8377583 96.5351464,31.8731562 96.2754678,31.9026549 C96.0157891,31.9321535 95.7651731,31.9469027 95.5236115,31.9469027 Z M103.042174,30.5486726 C103.44075,30.5486726 103.794029,30.5398231 104.10202,30.5221239 C104.410011,30.5044247 104.666665,30.4719767 104.871993,30.4247788 L104.871993,27.6814159 C104.751212,27.6224186 104.554947,27.5722716 104.28319,27.5309735 C104.011433,27.4896753 103.682311,27.4690265 103.295812,27.4690265 C103.042172,27.4690265 102.773439,27.4867255 102.489605,27.5221239 C102.205771,27.5575223 101.946095,27.6312679 101.710573,27.7433628 C101.475051,27.8554578 101.278785,28.0088486 101.12177,28.2035398 C100.964755,28.3982311 100.886249,28.6548656 100.886249,28.9734513 C100.886249,29.5634248 101.079495,29.9734502 101.465993,30.2035398 C101.852492,30.4336294 102.37788,30.5486726 103.042174,30.5486726 Z M102.897238,22.300885 C103.57361,22.300885 104.144291,22.3864298 104.609296,22.5575221 C105.074301,22.7286144 105.448717,22.9704999 105.732551,23.2831858 C106.016386,23.5958718 106.218691,23.9675495 106.339471,24.3982301 C106.460252,24.8289107 106.520642,25.3038322 106.520642,25.8230088 L106.520642,31.5752212 C106.375705,31.5988202 106.1734,31.6312682 105.913721,31.6725664 C105.654043,31.7138645 105.361154,31.7522122 105.035046,31.7876106 C104.708938,31.823009 104.35566,31.855457 103.9752,31.8849558 C103.594741,31.9144544 103.217307,31.9292035 102.842887,31.9292035 C102.311451,31.9292035 101.822297,31.8761068 101.375408,31.7699115 C100.92852,31.6637163 100.542027,31.4955763 100.215919,31.2654867 C99.8898112,31.0353971 99.6361755,30.7315653 99.4550045,30.3539823 C99.2738335,29.9763993 99.1832492,29.5221265 99.1832492,28.9911504 C99.1832492,28.4837733 99.2889307,28.0471994 99.500297,27.6814159 C99.7116633,27.3156324 99.9985134,27.0206501 100.360855,26.7964602 C100.723197,26.5722702 101.145923,26.4070802 101.629047,26.300885 C102.11217,26.1946897 102.619441,26.1415929 103.150876,26.1415929 C103.319969,26.1415929 103.495099,26.1504424 103.67627,26.1681416 C103.857441,26.1858408 104.029551,26.2094393 104.192605,26.2389381 C104.355659,26.2684368 104.497574,26.2949851 104.618355,26.3185841 C104.739135,26.342183 104.823681,26.359882 104.871993,26.3716814 L104.871993,25.9115044 C104.871993,25.6401167 104.841798,25.3716827 104.781408,25.1061947 C104.721017,24.8407066 104.612317,24.6047208 104.455301,24.3982301 C104.298286,24.1917393 104.083904,24.0265493 103.812147,23.9026549 C103.54039,23.7787604 103.187113,23.7168142 102.752302,23.7168142 C102.19671,23.7168142 101.710576,23.7551619 101.293882,23.8318584 C100.877188,23.9085549 100.566183,23.9882002 100.360855,24.0707965 L100.161568,22.7079646 C100.378973,22.6135689 100.74131,22.5221244 101.248589,22.4336283 C101.755868,22.3451323 102.305413,22.300885 102.897238,22.300885 Z M111.502822,30.5486726 C112.191271,30.5486726 112.701563,30.4601779 113.03371,30.2831858 C113.365856,30.1061938 113.531928,29.8230108 113.531928,29.4336283 C113.531928,29.0324463 113.368876,28.7138655 113.042768,28.4778761 C112.71666,28.2418867 112.179194,27.9764027 111.430353,27.6814159 C111.068011,27.5398223 110.720772,27.395281 110.388625,27.2477876 C110.056478,27.1002943 109.769628,26.9262547 109.528067,26.7256637 C109.286505,26.5250727 109.093259,26.2831873 108.948322,26 C108.803385,25.7168127 108.730918,25.3687336 108.730918,24.9557522 C108.730918,24.1415888 109.038904,23.4955776 109.654886,23.0176991 C110.270868,22.5398206 111.110281,22.300885 112.173151,22.300885 C112.438869,22.300885 112.704583,22.3156341 112.9703,22.3451327 C113.236017,22.3746315 113.483614,22.4100293 113.713098,22.4513274 C113.942581,22.4926256 114.144886,22.5368729 114.320018,22.5840708 C114.49515,22.6312687 114.631026,22.6725662 114.727651,22.7079646 L114.419661,24.1238938 C114.23849,24.0294981 113.95466,23.9321539 113.568162,23.8318584 C113.181663,23.7315629 112.716664,23.6814159 112.173151,23.6814159 C111.702106,23.6814159 111.291458,23.7728604 110.941194,23.9557522 C110.59093,24.138644 110.4158,24.4247768 110.4158,24.8141593 C110.4158,25.0147503 110.455053,25.1917397 110.533561,25.3451327 C110.612069,25.4985258 110.732847,25.6371675 110.895901,25.7610619 C111.058955,25.8849564 111.26126,25.9999994 111.502822,26.1061947 C111.744383,26.2123899 112.034252,26.3244832 112.372438,26.4424779 C112.819327,26.6076705 113.217898,26.7699107 113.568162,26.9292035 C113.918425,27.0884964 114.217354,27.2743352 114.464954,27.4867257 C114.712554,27.6991161 114.902781,27.9557507 115.03564,28.2566372 C115.168499,28.5575237 115.234927,28.9262515 115.234927,29.3628319 C115.234927,30.2123936 114.911844,30.855455 114.265667,31.2920354 C113.61949,31.7286158 112.69855,31.9469027 111.502822,31.9469027 C110.669435,31.9469027 110.017228,31.8790567 109.546184,31.7433628 C109.075139,31.6076689 108.755074,31.5044251 108.585982,31.4336283 L108.893971,30.0176991 C109.08722,30.0884959 109.395206,30.1946895 109.817939,30.3362832 C110.240671,30.4778768 110.802293,30.5486726 111.502822,30.5486726 Z M117.390852,31.7345133 L117.390852,18.2831858 L119.075735,18 L119.075735,22.7079646 C119.389765,22.5899699 119.724926,22.4985254 120.08123,22.4336283 C120.437533,22.3687312 120.790811,22.3362832 121.141075,22.3362832 C121.889916,22.3362832 122.511927,22.439527 123.007128,22.6460177 C123.502329,22.8525084 123.89788,23.1415911 124.193793,23.5132743 C124.489705,23.8849576 124.698049,24.3303809 124.81883,24.8495575 C124.93961,25.3687342 125,25.9409998 125,26.5663717 L125,31.7345133 L123.315117,31.7345133 L123.315117,26.920354 C123.315117,26.3539795 123.275864,25.8702085 123.197357,25.4690265 C123.118849,25.0678446 122.989012,24.743364 122.807841,24.4955752 C122.62667,24.2477864 122.385111,24.0678471 122.08316,23.9557522 C121.781208,23.8436573 121.406793,23.7876106 120.959905,23.7876106 C120.778734,23.7876106 120.591527,23.7994099 120.398277,23.8230088 C120.205028,23.8466078 120.020841,23.8731562 119.845708,23.9026549 C119.670576,23.9321536 119.513564,23.9646016 119.374666,24 C119.235768,24.0353984 119.136126,24.0648966 119.075735,24.0884956 L119.075735,31.7345133 L117.390852,31.7345133 Z" id="Unicash" fill="#FFFFFF" fill-rule="nonzero"></path>
                    </g>
                </g>
            </g>
        </g>
    </g>
</svg>