<?xml version="1.0" encoding="UTF-8"?>
<svg width="42px" height="42px" viewBox="0 0 42 42" version="1.1" xmlns="http://www.w3.org/2000/svg" xmlns:xlink="http://www.w3.org/1999/xlink">
    <!-- Generator: Sketch 49 (51002) - http://www.bohemiancoding.com/sketch -->
    <title>vk-social-logotype</title>
    <desc>Created with Sketch.</desc>
    <defs></defs>
    <g id="Symbols" stroke="none" stroke-width="1" fill="none" fill-rule="evenodd">
        <g id="layout/desktop/elements/footer/home" transform="translate(-1022.000000, -114.000000)" fill="#FFFFFF" fill-rule="nonzero">
            <g id="footer">
                <g id="footer-content" transform="translate(445.000000, 53.000000)">
                    <g id="vk-social-logotype" transform="translate(577.000000, 61.000000)">
                        <path d="M20.9464286,0 C9.37842857,0 0,9.378 0,20.9464286 C0,32.5148571 9.37842857,41.8928571 20.9464286,41.8928571 C32.5144286,41.8928571 41.8928571,32.5148571 41.8928571,20.9464286 C41.8928571,9.378 32.5144286,0 20.9464286,0 Z M31.5715714,23.2118571 C32.5478571,24.1654286 33.5807143,25.0628571 34.4571429,26.115 C34.8454286,26.5804286 35.2114286,27.0617143 35.49,27.603 C35.8877143,28.3748571 35.5285714,29.2212857 34.8377143,29.2671429 L30.5464286,29.2662857 C29.4381429,29.358 28.5561429,28.911 27.8125714,28.1532857 C27.219,27.5494286 26.6682857,26.9044286 26.0965714,26.28 C25.863,26.0237143 25.617,25.7824286 25.3238571,25.5925714 C24.7388571,25.212 24.2305714,25.3285714 23.8954286,25.9397143 C23.5538571,26.5615714 23.4758571,27.2507143 23.4432857,27.9428571 C23.3965714,28.9547143 23.0914286,29.2191429 22.0761429,29.2667143 C19.9067143,29.3682857 17.8482857,29.0391429 15.9351429,27.9454286 C14.2474286,26.9807143 12.9411429,25.6191429 11.8028571,24.0775714 C9.58628571,21.0724286 7.88871429,17.7741429 6.36342857,14.3811429 C6.02014286,13.617 6.27128571,13.2081429 7.11428571,13.1922857 C8.51485714,13.1652857 9.91542857,13.1687143 11.316,13.191 C11.886,13.2 12.2631429,13.5261429 12.4821429,14.064 C13.239,15.9261429 14.1668571,17.6978571 15.3295714,19.341 C15.6394286,19.7785714 15.9557143,20.2148571 16.4061429,20.5238571 C16.9032857,20.865 17.2821429,20.7522857 17.5165714,20.1972857 C17.6665714,19.8445714 17.7312857,19.4674286 17.7638571,19.0894286 C17.8752857,17.7947143 17.8885714,16.5004286 17.6957143,15.2108571 C17.5757143,14.4038571 17.1218571,13.8827143 16.3174286,13.7301429 C15.9077143,13.6525714 15.9677143,13.5008571 16.167,13.2668571 C16.5128571,12.8622857 16.8368571,12.612 17.4844286,12.612 L22.3328571,12.6111429 C23.097,12.7611429 23.2684286,13.104 23.3721429,13.8737143 L23.3764286,19.2617143 C23.3674286,19.5595714 23.526,20.4424286 24.0608571,20.6374286 C24.4894286,20.7788571 24.7722857,20.4351429 25.0285714,20.1638571 C26.1912857,18.93 27.0197143,17.4737143 27.7615714,15.9664286 C28.089,15.3017143 28.3714286,14.6138571 28.6457143,13.9247143 C28.8497143,13.4151429 29.1668571,13.1644286 29.742,13.173 L34.4108571,13.1785714 C34.5484286,13.1785714 34.6881429,13.1798571 34.8244286,13.2034286 C35.6112857,13.338 35.8268571,13.6765714 35.5834286,14.4441429 C35.2002857,15.6501429 34.4558571,16.6547143 33.7281429,17.6618571 C32.9481429,18.7401429 32.1162857,19.7807143 31.344,20.8637143 C30.6342857,21.8537143 30.6904286,22.3521429 31.5715714,23.2118571 Z" id="Shape"></path>
                    </g>
                </g>
            </g>
        </g>
    </g>
</svg>